<mxfile host="app.diagrams.net" modified="2024-06-14T01:39:26.144Z" agent="Mozilla/5.0 (Windows NT 10.0; Win64; x64) AppleWebKit/537.36 (KHTML, like Gecko) Chrome/125.0.0.0 Safari/537.36" etag="DIhrq5aE1sB8aVbI0Plx" version="24.5.4" type="device">
  <diagram id="R2lEEEUBdFMjLlhIrx00" name="Page-1">
    <mxGraphModel dx="1050" dy="1622" grid="1" gridSize="10" guides="1" tooltips="1" connect="1" arrows="1" fold="1" page="1" pageScale="1" pageWidth="850" pageHeight="1100" math="0" shadow="0" extFonts="Permanent Marker^https://fonts.googleapis.com/css?family=Permanent+Marker">
      <root>
        <mxCell id="0" />
        <mxCell id="1" parent="0" />
        <mxCell id="KI77_AWIRxuIXS0WcIFZ-6" value="director" style="ellipse;whiteSpace=wrap;html=1;" vertex="1" parent="1">
          <mxGeometry x="310" y="-20" width="80" height="50" as="geometry" />
        </mxCell>
        <mxCell id="KI77_AWIRxuIXS0WcIFZ-8" value="release_date" style="ellipse;whiteSpace=wrap;html=1;" vertex="1" parent="1">
          <mxGeometry x="220" y="-20" width="80" height="50" as="geometry" />
        </mxCell>
        <mxCell id="KI77_AWIRxuIXS0WcIFZ-9" value="runtime" style="ellipse;whiteSpace=wrap;html=1;" vertex="1" parent="1">
          <mxGeometry x="130" y="-20" width="80" height="50" as="geometry" />
        </mxCell>
        <mxCell id="KI77_AWIRxuIXS0WcIFZ-10" value="movie_ID" style="ellipse;whiteSpace=wrap;html=1;" vertex="1" parent="1">
          <mxGeometry x="10" y="130" width="80" height="50" as="geometry" />
        </mxCell>
        <mxCell id="KI77_AWIRxuIXS0WcIFZ-11" value="title" style="ellipse;whiteSpace=wrap;html=1;" vertex="1" parent="1">
          <mxGeometry x="10" y="60" width="80" height="50" as="geometry" />
        </mxCell>
        <mxCell id="KI77_AWIRxuIXS0WcIFZ-24" style="edgeStyle=orthogonalEdgeStyle;rounded=0;orthogonalLoop=1;jettySize=auto;html=1;entryX=1;entryY=0.25;entryDx=0;entryDy=0;" edge="1" parent="1" source="KI77_AWIRxuIXS0WcIFZ-12" target="KI77_AWIRxuIXS0WcIFZ-21">
          <mxGeometry relative="1" as="geometry" />
        </mxCell>
        <mxCell id="KI77_AWIRxuIXS0WcIFZ-12" value="starring" style="ellipse;whiteSpace=wrap;html=1;" vertex="1" parent="1">
          <mxGeometry x="400" width="80" height="50" as="geometry" />
        </mxCell>
        <mxCell id="KI77_AWIRxuIXS0WcIFZ-13" value="type" style="ellipse;whiteSpace=wrap;html=1;" vertex="1" parent="1">
          <mxGeometry x="30" width="80" height="50" as="geometry" />
        </mxCell>
        <mxCell id="KI77_AWIRxuIXS0WcIFZ-14" style="edgeStyle=orthogonalEdgeStyle;rounded=0;orthogonalLoop=1;jettySize=auto;html=1;entryX=0;entryY=0.623;entryDx=0;entryDy=0;entryPerimeter=0;" edge="1" parent="1" source="KI77_AWIRxuIXS0WcIFZ-10" target="KI77_AWIRxuIXS0WcIFZ-21">
          <mxGeometry relative="1" as="geometry">
            <mxPoint x="119.5" y="166.79999999999995" as="targetPoint" />
          </mxGeometry>
        </mxCell>
        <mxCell id="KI77_AWIRxuIXS0WcIFZ-15" style="edgeStyle=orthogonalEdgeStyle;rounded=0;orthogonalLoop=1;jettySize=auto;html=1;entryX=0.01;entryY=0.154;entryDx=0;entryDy=0;entryPerimeter=0;" edge="1" parent="1" source="KI77_AWIRxuIXS0WcIFZ-11" target="KI77_AWIRxuIXS0WcIFZ-21">
          <mxGeometry relative="1" as="geometry">
            <mxPoint x="119.5" y="137.3599999999999" as="targetPoint" />
          </mxGeometry>
        </mxCell>
        <mxCell id="KI77_AWIRxuIXS0WcIFZ-17" style="edgeStyle=orthogonalEdgeStyle;rounded=0;orthogonalLoop=1;jettySize=auto;html=1;entryX=0.25;entryY=0;entryDx=0;entryDy=0;" edge="1" parent="1" source="KI77_AWIRxuIXS0WcIFZ-9" target="KI77_AWIRxuIXS0WcIFZ-21">
          <mxGeometry relative="1" as="geometry">
            <mxPoint x="191.5" y="121.68000000000006" as="targetPoint" />
          </mxGeometry>
        </mxCell>
        <mxCell id="KI77_AWIRxuIXS0WcIFZ-18" style="edgeStyle=orthogonalEdgeStyle;rounded=0;orthogonalLoop=1;jettySize=auto;html=1;entryX=0.367;entryY=-0.063;entryDx=0;entryDy=0;entryPerimeter=0;" edge="1" parent="1" source="KI77_AWIRxuIXS0WcIFZ-8" target="KI77_AWIRxuIXS0WcIFZ-21">
          <mxGeometry relative="1" as="geometry">
            <mxPoint x="217.25" y="118.31999999999994" as="targetPoint" />
          </mxGeometry>
        </mxCell>
        <mxCell id="KI77_AWIRxuIXS0WcIFZ-19" style="edgeStyle=orthogonalEdgeStyle;rounded=0;orthogonalLoop=1;jettySize=auto;html=1;entryX=0.593;entryY=-0.04;entryDx=0;entryDy=0;entryPerimeter=0;" edge="1" parent="1" source="KI77_AWIRxuIXS0WcIFZ-6" target="KI77_AWIRxuIXS0WcIFZ-21">
          <mxGeometry relative="1" as="geometry">
            <mxPoint x="272.5" y="116.07999999999993" as="targetPoint" />
          </mxGeometry>
        </mxCell>
        <mxCell id="KI77_AWIRxuIXS0WcIFZ-21" value="movie" style="rounded=0;whiteSpace=wrap;html=1;" vertex="1" parent="1">
          <mxGeometry x="130" y="140" width="240" height="70" as="geometry" />
        </mxCell>
        <mxCell id="KI77_AWIRxuIXS0WcIFZ-23" style="edgeStyle=orthogonalEdgeStyle;rounded=0;orthogonalLoop=1;jettySize=auto;html=1;entryX=0.073;entryY=-0.006;entryDx=0;entryDy=0;entryPerimeter=0;" edge="1" parent="1" source="KI77_AWIRxuIXS0WcIFZ-13" target="KI77_AWIRxuIXS0WcIFZ-21">
          <mxGeometry relative="1" as="geometry" />
        </mxCell>
        <mxCell id="KI77_AWIRxuIXS0WcIFZ-25" value="customer" style="rounded=0;whiteSpace=wrap;html=1;" vertex="1" parent="1">
          <mxGeometry x="630" y="170" width="120" height="60" as="geometry" />
        </mxCell>
        <mxCell id="KI77_AWIRxuIXS0WcIFZ-29" style="edgeStyle=orthogonalEdgeStyle;rounded=0;orthogonalLoop=1;jettySize=auto;html=1;exitX=0.5;exitY=1;exitDx=0;exitDy=0;entryX=0;entryY=0.5;entryDx=0;entryDy=0;" edge="1" parent="1" source="KI77_AWIRxuIXS0WcIFZ-26" target="KI77_AWIRxuIXS0WcIFZ-25">
          <mxGeometry relative="1" as="geometry" />
        </mxCell>
        <mxCell id="KI77_AWIRxuIXS0WcIFZ-26" value="c_ID" style="ellipse;whiteSpace=wrap;html=1;" vertex="1" parent="1">
          <mxGeometry x="580" y="80" width="80" height="50" as="geometry" />
        </mxCell>
        <mxCell id="KI77_AWIRxuIXS0WcIFZ-30" style="edgeStyle=orthogonalEdgeStyle;rounded=0;orthogonalLoop=1;jettySize=auto;html=1;exitX=0.5;exitY=1;exitDx=0;exitDy=0;entryX=0.25;entryY=0;entryDx=0;entryDy=0;" edge="1" parent="1" source="KI77_AWIRxuIXS0WcIFZ-27" target="KI77_AWIRxuIXS0WcIFZ-25">
          <mxGeometry relative="1" as="geometry" />
        </mxCell>
        <mxCell id="KI77_AWIRxuIXS0WcIFZ-27" value="name" style="ellipse;whiteSpace=wrap;html=1;" vertex="1" parent="1">
          <mxGeometry x="670" y="80" width="80" height="50" as="geometry" />
        </mxCell>
        <mxCell id="KI77_AWIRxuIXS0WcIFZ-28" value="phone" style="ellipse;whiteSpace=wrap;html=1;" vertex="1" parent="1">
          <mxGeometry x="750" y="80" width="80" height="50" as="geometry" />
        </mxCell>
        <mxCell id="KI77_AWIRxuIXS0WcIFZ-31" style="edgeStyle=orthogonalEdgeStyle;rounded=0;orthogonalLoop=1;jettySize=auto;html=1;exitX=0.5;exitY=1;exitDx=0;exitDy=0;entryX=0.853;entryY=-0.013;entryDx=0;entryDy=0;entryPerimeter=0;" edge="1" parent="1" source="KI77_AWIRxuIXS0WcIFZ-28" target="KI77_AWIRxuIXS0WcIFZ-25">
          <mxGeometry relative="1" as="geometry" />
        </mxCell>
        <mxCell id="KI77_AWIRxuIXS0WcIFZ-32" value="ticket" style="rounded=0;whiteSpace=wrap;html=1;" vertex="1" parent="1">
          <mxGeometry x="640" y="340" width="120" height="60" as="geometry" />
        </mxCell>
        <mxCell id="KI77_AWIRxuIXS0WcIFZ-33" value="seat_sum" style="ellipse;whiteSpace=wrap;html=1;" vertex="1" parent="1">
          <mxGeometry x="710" y="440" width="80" height="50" as="geometry" />
        </mxCell>
        <mxCell id="KI77_AWIRxuIXS0WcIFZ-35" style="edgeStyle=orthogonalEdgeStyle;rounded=0;orthogonalLoop=1;jettySize=auto;html=1;exitX=0.5;exitY=0;exitDx=0;exitDy=0;entryX=0.25;entryY=1;entryDx=0;entryDy=0;" edge="1" parent="1" source="KI77_AWIRxuIXS0WcIFZ-34" target="KI77_AWIRxuIXS0WcIFZ-32">
          <mxGeometry relative="1" as="geometry" />
        </mxCell>
        <mxCell id="KI77_AWIRxuIXS0WcIFZ-34" value="ticket_ID" style="ellipse;whiteSpace=wrap;html=1;" vertex="1" parent="1">
          <mxGeometry x="620" y="440" width="80" height="50" as="geometry" />
        </mxCell>
        <mxCell id="KI77_AWIRxuIXS0WcIFZ-36" style="edgeStyle=orthogonalEdgeStyle;rounded=0;orthogonalLoop=1;jettySize=auto;html=1;exitX=0.5;exitY=0;exitDx=0;exitDy=0;entryX=0.667;entryY=1;entryDx=0;entryDy=0;entryPerimeter=0;" edge="1" parent="1" source="KI77_AWIRxuIXS0WcIFZ-33" target="KI77_AWIRxuIXS0WcIFZ-32">
          <mxGeometry relative="1" as="geometry" />
        </mxCell>
        <mxCell id="KI77_AWIRxuIXS0WcIFZ-42" style="edgeStyle=orthogonalEdgeStyle;rounded=0;orthogonalLoop=1;jettySize=auto;html=1;exitX=0.5;exitY=1;exitDx=0;exitDy=0;entryX=0.5;entryY=0;entryDx=0;entryDy=0;" edge="1" parent="1" source="KI77_AWIRxuIXS0WcIFZ-40" target="KI77_AWIRxuIXS0WcIFZ-32">
          <mxGeometry relative="1" as="geometry" />
        </mxCell>
        <mxCell id="KI77_AWIRxuIXS0WcIFZ-40" value="购买" style="rhombus;whiteSpace=wrap;html=1;" vertex="1" parent="1">
          <mxGeometry x="660" y="250" width="80" height="80" as="geometry" />
        </mxCell>
        <mxCell id="KI77_AWIRxuIXS0WcIFZ-41" style="edgeStyle=orthogonalEdgeStyle;rounded=0;orthogonalLoop=1;jettySize=auto;html=1;exitX=0.5;exitY=0;exitDx=0;exitDy=0;entryX=0.573;entryY=0.973;entryDx=0;entryDy=0;entryPerimeter=0;" edge="1" parent="1" source="KI77_AWIRxuIXS0WcIFZ-40" target="KI77_AWIRxuIXS0WcIFZ-25">
          <mxGeometry relative="1" as="geometry" />
        </mxCell>
        <mxCell id="KI77_AWIRxuIXS0WcIFZ-43" value="schedule" style="rounded=0;whiteSpace=wrap;html=1;" vertex="1" parent="1">
          <mxGeometry x="140" y="390" width="120" height="60" as="geometry" />
        </mxCell>
        <mxCell id="KI77_AWIRxuIXS0WcIFZ-52" style="edgeStyle=orthogonalEdgeStyle;rounded=0;orthogonalLoop=1;jettySize=auto;html=1;exitX=1;exitY=0.5;exitDx=0;exitDy=0;entryX=0;entryY=0.5;entryDx=0;entryDy=0;" edge="1" parent="1" source="KI77_AWIRxuIXS0WcIFZ-44" target="KI77_AWIRxuIXS0WcIFZ-43">
          <mxGeometry relative="1" as="geometry" />
        </mxCell>
        <mxCell id="KI77_AWIRxuIXS0WcIFZ-44" value="schedule_ID" style="ellipse;whiteSpace=wrap;html=1;" vertex="1" parent="1">
          <mxGeometry x="30" y="395" width="80" height="50" as="geometry" />
        </mxCell>
        <mxCell id="KI77_AWIRxuIXS0WcIFZ-45" value="time" style="ellipse;whiteSpace=wrap;html=1;" vertex="1" parent="1">
          <mxGeometry x="150" y="500" width="80" height="50" as="geometry" />
        </mxCell>
        <mxCell id="KI77_AWIRxuIXS0WcIFZ-53" style="edgeStyle=orthogonalEdgeStyle;rounded=0;orthogonalLoop=1;jettySize=auto;html=1;exitX=0;exitY=0;exitDx=0;exitDy=0;entryX=1;entryY=0.5;entryDx=0;entryDy=0;" edge="1" parent="1" source="KI77_AWIRxuIXS0WcIFZ-46" target="KI77_AWIRxuIXS0WcIFZ-43">
          <mxGeometry relative="1" as="geometry" />
        </mxCell>
        <mxCell id="KI77_AWIRxuIXS0WcIFZ-46" value="number" style="ellipse;whiteSpace=wrap;html=1;" vertex="1" parent="1">
          <mxGeometry x="310" y="445" width="80" height="50" as="geometry" />
        </mxCell>
        <mxCell id="KI77_AWIRxuIXS0WcIFZ-47" value="price" style="ellipse;whiteSpace=wrap;html=1;" vertex="1" parent="1">
          <mxGeometry x="230" y="470" width="80" height="50" as="geometry" />
        </mxCell>
        <mxCell id="KI77_AWIRxuIXS0WcIFZ-48" value="date" style="ellipse;whiteSpace=wrap;html=1;" vertex="1" parent="1">
          <mxGeometry x="60" y="470" width="80" height="50" as="geometry" />
        </mxCell>
        <mxCell id="KI77_AWIRxuIXS0WcIFZ-49" style="edgeStyle=orthogonalEdgeStyle;rounded=0;orthogonalLoop=1;jettySize=auto;html=1;exitX=1;exitY=0;exitDx=0;exitDy=0;entryX=0.137;entryY=1.107;entryDx=0;entryDy=0;entryPerimeter=0;" edge="1" parent="1" source="KI77_AWIRxuIXS0WcIFZ-48" target="KI77_AWIRxuIXS0WcIFZ-43">
          <mxGeometry relative="1" as="geometry" />
        </mxCell>
        <mxCell id="KI77_AWIRxuIXS0WcIFZ-50" style="edgeStyle=orthogonalEdgeStyle;rounded=0;orthogonalLoop=1;jettySize=auto;html=1;exitX=0.5;exitY=0;exitDx=0;exitDy=0;entryX=0.417;entryY=1.013;entryDx=0;entryDy=0;entryPerimeter=0;" edge="1" parent="1" source="KI77_AWIRxuIXS0WcIFZ-45" target="KI77_AWIRxuIXS0WcIFZ-43">
          <mxGeometry relative="1" as="geometry" />
        </mxCell>
        <mxCell id="KI77_AWIRxuIXS0WcIFZ-51" style="edgeStyle=orthogonalEdgeStyle;rounded=0;orthogonalLoop=1;jettySize=auto;html=1;exitX=0;exitY=0;exitDx=0;exitDy=0;entryX=0.65;entryY=1.067;entryDx=0;entryDy=0;entryPerimeter=0;" edge="1" parent="1" source="KI77_AWIRxuIXS0WcIFZ-47" target="KI77_AWIRxuIXS0WcIFZ-43">
          <mxGeometry relative="1" as="geometry" />
        </mxCell>
        <mxCell id="KI77_AWIRxuIXS0WcIFZ-56" style="edgeStyle=orthogonalEdgeStyle;rounded=0;orthogonalLoop=1;jettySize=auto;html=1;exitX=0.5;exitY=1;exitDx=0;exitDy=0;entryX=0.5;entryY=0;entryDx=0;entryDy=0;" edge="1" parent="1" source="KI77_AWIRxuIXS0WcIFZ-54" target="KI77_AWIRxuIXS0WcIFZ-43">
          <mxGeometry relative="1" as="geometry" />
        </mxCell>
        <mxCell id="KI77_AWIRxuIXS0WcIFZ-54" value="放映" style="rhombus;whiteSpace=wrap;html=1;" vertex="1" parent="1">
          <mxGeometry x="170" y="270" width="80" height="80" as="geometry" />
        </mxCell>
        <mxCell id="KI77_AWIRxuIXS0WcIFZ-55" style="edgeStyle=orthogonalEdgeStyle;rounded=0;orthogonalLoop=1;jettySize=auto;html=1;exitX=0.5;exitY=0;exitDx=0;exitDy=0;entryX=0.37;entryY=1.057;entryDx=0;entryDy=0;entryPerimeter=0;" edge="1" parent="1" source="KI77_AWIRxuIXS0WcIFZ-54" target="KI77_AWIRxuIXS0WcIFZ-21">
          <mxGeometry relative="1" as="geometry" />
        </mxCell>
        <mxCell id="KI77_AWIRxuIXS0WcIFZ-58" style="edgeStyle=orthogonalEdgeStyle;rounded=0;orthogonalLoop=1;jettySize=auto;html=1;exitX=1;exitY=0.5;exitDx=0;exitDy=0;" edge="1" parent="1" source="KI77_AWIRxuIXS0WcIFZ-57" target="KI77_AWIRxuIXS0WcIFZ-32">
          <mxGeometry relative="1" as="geometry" />
        </mxCell>
        <mxCell id="KI77_AWIRxuIXS0WcIFZ-59" style="edgeStyle=orthogonalEdgeStyle;rounded=0;orthogonalLoop=1;jettySize=auto;html=1;exitX=0;exitY=0.5;exitDx=0;exitDy=0;entryX=1;entryY=0;entryDx=0;entryDy=0;" edge="1" parent="1" source="KI77_AWIRxuIXS0WcIFZ-57" target="KI77_AWIRxuIXS0WcIFZ-43">
          <mxGeometry relative="1" as="geometry" />
        </mxCell>
        <mxCell id="KI77_AWIRxuIXS0WcIFZ-57" value="属于" style="rhombus;whiteSpace=wrap;html=1;" vertex="1" parent="1">
          <mxGeometry x="440" y="350" width="80" height="80" as="geometry" />
        </mxCell>
        <mxCell id="KI77_AWIRxuIXS0WcIFZ-60" value="hall" style="rounded=0;whiteSpace=wrap;html=1;" vertex="1" parent="1">
          <mxGeometry x="170" y="670" width="120" height="60" as="geometry" />
        </mxCell>
        <mxCell id="KI77_AWIRxuIXS0WcIFZ-65" style="edgeStyle=orthogonalEdgeStyle;rounded=0;orthogonalLoop=1;jettySize=auto;html=1;exitX=1;exitY=0.5;exitDx=0;exitDy=0;entryX=0;entryY=0.5;entryDx=0;entryDy=0;" edge="1" parent="1" source="KI77_AWIRxuIXS0WcIFZ-61" target="KI77_AWIRxuIXS0WcIFZ-60">
          <mxGeometry relative="1" as="geometry" />
        </mxCell>
        <mxCell id="KI77_AWIRxuIXS0WcIFZ-61" value="hall_ID" style="ellipse;whiteSpace=wrap;html=1;" vertex="1" parent="1">
          <mxGeometry x="60" y="675" width="80" height="50" as="geometry" />
        </mxCell>
        <mxCell id="KI77_AWIRxuIXS0WcIFZ-62" value="location" style="ellipse;whiteSpace=wrap;html=1;" vertex="1" parent="1">
          <mxGeometry x="310" y="740" width="80" height="50" as="geometry" />
        </mxCell>
        <mxCell id="KI77_AWIRxuIXS0WcIFZ-63" value="capacity" style="ellipse;whiteSpace=wrap;html=1;" vertex="1" parent="1">
          <mxGeometry x="200" y="770" width="80" height="50" as="geometry" />
        </mxCell>
        <mxCell id="KI77_AWIRxuIXS0WcIFZ-64" value="mode" style="ellipse;whiteSpace=wrap;html=1;" vertex="1" parent="1">
          <mxGeometry x="80" y="750" width="80" height="50" as="geometry" />
        </mxCell>
        <mxCell id="KI77_AWIRxuIXS0WcIFZ-66" style="edgeStyle=orthogonalEdgeStyle;rounded=0;orthogonalLoop=1;jettySize=auto;html=1;exitX=1;exitY=0;exitDx=0;exitDy=0;entryX=0.14;entryY=1.02;entryDx=0;entryDy=0;entryPerimeter=0;" edge="1" parent="1" source="KI77_AWIRxuIXS0WcIFZ-64" target="KI77_AWIRxuIXS0WcIFZ-60">
          <mxGeometry relative="1" as="geometry" />
        </mxCell>
        <mxCell id="KI77_AWIRxuIXS0WcIFZ-67" style="edgeStyle=orthogonalEdgeStyle;rounded=0;orthogonalLoop=1;jettySize=auto;html=1;exitX=0.5;exitY=0;exitDx=0;exitDy=0;entryX=0.573;entryY=1.02;entryDx=0;entryDy=0;entryPerimeter=0;" edge="1" parent="1" source="KI77_AWIRxuIXS0WcIFZ-63" target="KI77_AWIRxuIXS0WcIFZ-60">
          <mxGeometry relative="1" as="geometry" />
        </mxCell>
        <mxCell id="KI77_AWIRxuIXS0WcIFZ-68" style="edgeStyle=orthogonalEdgeStyle;rounded=0;orthogonalLoop=1;jettySize=auto;html=1;exitX=0;exitY=0;exitDx=0;exitDy=0;entryX=0.867;entryY=0.98;entryDx=0;entryDy=0;entryPerimeter=0;" edge="1" parent="1" source="KI77_AWIRxuIXS0WcIFZ-62" target="KI77_AWIRxuIXS0WcIFZ-60">
          <mxGeometry relative="1" as="geometry" />
        </mxCell>
        <mxCell id="KI77_AWIRxuIXS0WcIFZ-70" style="edgeStyle=orthogonalEdgeStyle;rounded=0;orthogonalLoop=1;jettySize=auto;html=1;exitX=0.5;exitY=0;exitDx=0;exitDy=0;entryX=0.5;entryY=1;entryDx=0;entryDy=0;" edge="1" parent="1" source="KI77_AWIRxuIXS0WcIFZ-69" target="KI77_AWIRxuIXS0WcIFZ-43">
          <mxGeometry relative="1" as="geometry" />
        </mxCell>
        <mxCell id="KI77_AWIRxuIXS0WcIFZ-71" style="edgeStyle=orthogonalEdgeStyle;rounded=0;orthogonalLoop=1;jettySize=auto;html=1;exitX=0.5;exitY=1;exitDx=0;exitDy=0;entryX=0.5;entryY=0;entryDx=0;entryDy=0;" edge="1" parent="1" source="KI77_AWIRxuIXS0WcIFZ-69" target="KI77_AWIRxuIXS0WcIFZ-60">
          <mxGeometry relative="1" as="geometry" />
        </mxCell>
        <mxCell id="KI77_AWIRxuIXS0WcIFZ-69" value="位于" style="rhombus;whiteSpace=wrap;html=1;" vertex="1" parent="1">
          <mxGeometry x="190" y="570" width="80" height="80" as="geometry" />
        </mxCell>
        <mxCell id="KI77_AWIRxuIXS0WcIFZ-72" value="1" style="text;html=1;align=center;verticalAlign=middle;whiteSpace=wrap;rounded=0;" vertex="1" parent="1">
          <mxGeometry x="240" y="640" width="60" height="30" as="geometry" />
        </mxCell>
        <mxCell id="KI77_AWIRxuIXS0WcIFZ-73" value="n" style="text;html=1;align=center;verticalAlign=middle;whiteSpace=wrap;rounded=0;" vertex="1" parent="1">
          <mxGeometry x="230" y="535" width="60" height="30" as="geometry" />
        </mxCell>
        <mxCell id="KI77_AWIRxuIXS0WcIFZ-76" value="n" style="text;html=1;align=center;verticalAlign=middle;whiteSpace=wrap;rounded=0;" vertex="1" parent="1">
          <mxGeometry x="220" y="240" width="60" height="30" as="geometry" />
        </mxCell>
        <mxCell id="KI77_AWIRxuIXS0WcIFZ-77" value="1" style="text;html=1;align=center;verticalAlign=middle;whiteSpace=wrap;rounded=0;" vertex="1" parent="1">
          <mxGeometry x="140" y="355" width="60" height="30" as="geometry" />
        </mxCell>
        <mxCell id="KI77_AWIRxuIXS0WcIFZ-78" value="n" style="text;html=1;align=center;verticalAlign=middle;whiteSpace=wrap;rounded=0;" vertex="1" parent="1">
          <mxGeometry x="570" y="340" width="60" height="30" as="geometry" />
        </mxCell>
        <mxCell id="KI77_AWIRxuIXS0WcIFZ-79" value="1" style="text;html=1;align=center;verticalAlign=middle;whiteSpace=wrap;rounded=0;" vertex="1" parent="1">
          <mxGeometry x="340" y="350" width="60" height="30" as="geometry" />
        </mxCell>
        <mxCell id="KI77_AWIRxuIXS0WcIFZ-80" value="1" style="text;html=1;align=center;verticalAlign=middle;whiteSpace=wrap;rounded=0;" vertex="1" parent="1">
          <mxGeometry x="710" y="240" width="60" height="30" as="geometry" />
        </mxCell>
        <mxCell id="KI77_AWIRxuIXS0WcIFZ-81" value="n" style="text;html=1;align=center;verticalAlign=middle;whiteSpace=wrap;rounded=0;" vertex="1" parent="1">
          <mxGeometry x="710" y="310" width="60" height="30" as="geometry" />
        </mxCell>
        <mxCell id="KI77_AWIRxuIXS0WcIFZ-82" value="&lt;font style=&quot;font-size: 36px;&quot;&gt;U202290051&lt;/font&gt;&lt;div&gt;&lt;font style=&quot;font-size: 36px;&quot;&gt;CS2203&lt;/font&gt;&lt;/div&gt;&lt;div&gt;&lt;font style=&quot;font-size: 36px;&quot;&gt;王镇濠&lt;/font&gt;&lt;/div&gt;" style="text;html=1;align=center;verticalAlign=middle;whiteSpace=wrap;rounded=0;" vertex="1" parent="1">
          <mxGeometry x="510" y="560" width="270" height="180" as="geometry" />
        </mxCell>
      </root>
    </mxGraphModel>
  </diagram>
</mxfile>
